<?xml version="1.0" encoding="UTF-8" standalone="no"?>
<svg xmlns="http://www.w3.org/2000/svg"
     xmlns:svg="http://www.w3.org/2000/svg"
     version="1.1"
     width="6.4in" height="3.6in"
     viewBox="0 0 1920 1080">
  <title>brushstroke</title>
  <defs>
  </defs>
  <path id="vector0"
        fill="#4A6741"
        stroke="none"
        opacity="1.000000"
        stroke-width="6.000000"
        stroke-linecap="butt"
        stroke-linejoin="miter"
        stroke-miterlimit="10.000000"
        d="M 11.80,427.08
           C 12.03,426.89 12.22,426.75 12.41,426.59
             12.57,426.93 12.79,427.28 12.84,427.65
             12.87,427.77 12.49,427.96 12.30,428.11
             12.13,427.76 11.96,427.41 11.80,427.08
           M 38.93,350.03
           C 40.31,351.37 41.02,352.07 42.04,353.05
             40.34,353.76 38.89,354.37 35.63,355.73
             37.28,352.88 38.02,351.61 38.93,350.03
           M 27.24,383.57
           C 26.18,382.04 25.37,380.87 24.02,378.93
             26.49,378.81 28.04,378.73 30.82,378.60
             29.21,380.83 28.31,382.08 27.24,383.57
           M 106.37,525.73
           C 103.31,524.03 103.64,521.60 104.31,519.57
             104.74,518.27 106.51,517.37 109.16,514.92
             108.74,518.29 108.74,519.77 108.34,521.15
             107.89,522.69 107.08,524.13 106.37,525.73
           M 42.07,371.45
           C 42.16,370.28 42.25,369.08 42.40,367.12
             44.04,367.91 45.27,368.49 46.95,369.29
             47.17,369.21 48.03,369.15 48.54,368.71
             50.37,367.15 52.15,365.72 54.99,367.25
             55.40,369.96 55.52,372.63 52.54,374.16
             48.99,373.24 45.56,372.36 42.07,371.45
           M 21.49,418.33
           C 22.81,419.77 24.23,421.32 25.65,422.88
             27.80,423.55 30.62,422.40 32.02,424.84
             33.16,424.35 34.29,423.88 36.12,423.09
             36.32,421.87 36.63,419.97 36.94,418.03
             39.13,418.19 41.13,418.35 43.13,418.49
             43.14,418.72 43.16,418.96 43.18,419.19
             42.28,419.36 41.38,419.53 39.87,419.81
             39.68,422.35 39.89,425.17 39.15,427.76
             38.45,430.19 35.48,432.49 35.75,434.61
             36.29,438.68 29.47,436.23 31.66,440.17
             28.32,440.49 26.13,439.67 25.57,437.04
             24.92,434.00 24.75,430.88 24.34,427.47
             23.22,428.03 22.43,428.41 21.11,429.07
             19.63,427.61 18.05,426.04 16.37,424.37
             16.87,423.57 17.18,422.92 17.65,422.39
             18.78,421.12 19.99,419.91 21.49,418.33
           M 102.14,370.29
           C 102.25,368.84 102.35,367.48 102.47,365.99
             101.51,365.91 100.78,365.85 99.78,365.79
             99.67,367.23 99.57,368.59 99.45,370.08
             100.41,370.16 101.14,370.21 102.14,370.29 Z
           M 131.92,370.88
           C 133.93,370.91 136.63,373.00 136.81,368.72
             135.09,368.59 133.65,368.48 132.11,368.36
             132.04,369.31 131.99,369.99 131.92,370.88 Z
           M 1792.20,378.60
           C 1793.75,378.72 1795.19,378.83 1796.77,378.95
             1796.84,378.04 1796.89,377.36 1796.97,376.41
             1795.43,376.31 1793.98,376.19 1792.39,376.07
             1792.32,376.97 1792.27,377.65 1792.20,378.60 Z
           M 1729.05,386.49
           C 1726.48,390.48 1728.71,391.51 1730.62,392.57
             1730.89,392.73 1731.51,392.33 1732.74,391.97
             1731.69,390.41 1730.74,389.00 1729.05,386.49
             1729.05,386.49 1729.05,386.49 1729.05,386.49 Z
           M 143.55,535.99
           C 143.02,536.20 142.50,536.41 141.98,536.64
             142.10,538.08 142.22,539.52 142.42,541.88
             144.46,540.53 145.64,539.75 146.97,538.87
             145.75,537.84 144.65,536.91 143.55,535.99
             143.55,535.99 143.55,535.99 143.55,535.99 Z
           M 137.90,367.12
           C 139.23,368.57 139.92,369.33 140.85,370.35
             143.13,370.43 145.65,370.51 148.64,370.60
             147.47,369.32 146.78,368.56 146.02,367.73
             143.77,367.56 141.46,367.39 137.90,367.12
             137.90,367.12 137.90,367.12 137.90,367.12 Z
           M 1712.33,439.77
           C 1714.45,437.87 1715.92,436.56 1717.36,435.27
             1716.64,434.45 1715.96,433.68 1715.03,432.63
             1713.11,433.36 1711.13,434.12 1708.51,435.12
             1709.84,436.75 1710.76,437.87 1712.33,439.77
             1712.33,439.77 1712.33,439.77 1712.33,439.77 Z
           M 1724.22,414.84
           C 1723.32,412.85 1725.42,410.81 1723.00,408.52
             1720.62,409.96 1718.18,411.08 1717.25,414.31
             1719.56,414.48 1721.53,414.64 1724.22,414.84
             1724.22,414.84 1724.22,414.84 1724.22,414.84 Z
           M 69.24,423.51
           C 69.04,425.08 68.79,426.96 68.77,427.15
             70.48,429.83 71.41,431.27 72.29,432.65
             75.68,430.63 75.58,428.04 74.95,425.75
             72.90,424.95 71.27,424.31 69.24,423.51 Z
           M 97.19,420.35
           C 97.72,420.68 98.25,421.01 98.78,421.35
             100.75,419.12 105.10,418.56 103.65,413.89
             101.50,413.73 99.54,413.59 97.72,413.45
             97.53,415.99 97.36,418.17 97.19,420.35 Z
           M 1662.09,434.35
           C 1669.51,438.09 1670.99,438.15 1674.70,434.77
             1671.97,431.15 1667.84,433.08 1664.71,432.09
             1663.61,433.03 1662.87,433.67 1662.09,434.35
             1662.09,434.35 1662.09,434.35 1662.09,434.35 Z
           M 1750.92,395.64
           C 1752.03,394.64 1753.48,393.32 1754.95,392.00
             1753.93,391.44 1752.89,390.87 1751.61,390.17
             1752.35,389.04 1752.96,388.12 1753.75,386.92
             1749.46,385.36 1747.55,388.20 1745.36,390.25
             1744.99,393.96 1746.62,395.67 1750.92,395.64
             1750.92,395.64 1750.92,395.64 1750.92,395.64 Z
           M 1675.05,433.15
           C 1680.01,439.15 1685.58,438.04 1689.93,438.68
             1691.29,437.79 1692.14,437.23 1692.99,436.65
             1692.18,435.79 1691.49,435.01 1690.66,434.12
             1686.14,433.85 1681.49,433.29 1675.05,433.15 Z
           M 1755.51,387.17
           C 1756.05,388.15 1756.69,388.88 1756.87,389.69
             1757.11,390.81 1757.00,391.99 1757.03,392.60
             1760.39,393.57 1763.04,394.33 1765.68,395.09
             1766.64,393.47 1767.61,391.84 1768.53,390.29
             1764.58,387.17 1760.31,386.76 1755.51,387.17 Z
           M 122.31,505.28
           C 121.55,503.92 120.63,502.28 120.21,501.52
             118.32,502.60 116.54,503.61 114.92,504.53
             115.91,509.37 121.13,507.72 122.77,510.45
             124.84,509.52 126.38,508.83 127.56,508.29
             127.70,506.41 127.83,504.75 128.03,502.13
             125.63,503.45 123.96,504.37 122.31,505.28
             122.31,505.28 122.31,505.28 122.31,505.28 Z
           M 1652.66,384.17
           C 1652.78,385.13 1652.87,385.84 1653.03,386.99
             1655.72,386.56 1658.19,385.73 1660.59,385.89
             1663.05,386.05 1665.41,387.40 1667.89,387.80
             1670.37,388.20 1672.93,388.07 1676.66,388.23
             1674.88,385.84 1673.92,384.55 1672.46,382.60
             1670.41,385.17 1668.29,385.75 1666.04,384.00
             1663.97,382.41 1661.83,382.65 1659.47,383.27
             1657.52,383.77 1655.44,383.83 1652.66,384.17
             1652.66,384.17 1652.66,384.17 1652.66,384.17 Z
           M 128.27,347.81
           C 131.73,347.03 135.24,346.21 139.21,345.31
             136.46,342.49 133.81,339.77 130.94,340.60
             127.63,341.55 124.40,341.13 120.76,341.27
             123.55,343.69 125.89,345.73 128.27,347.81 Z
           M 120.85,414.76
           C 119.19,417.76 120.43,419.53 122.34,421.07
             124.53,421.24 126.67,421.40 128.11,421.51
             130.24,420.44 131.92,419.79 133.37,418.83
             134.70,417.95 135.79,416.75 137.25,415.45
             131.12,412.32 125.90,416.81 120.85,414.76 Z
           M 1723.89,386.24
           C 1719.17,385.88 1714.64,385.53 1710.12,385.19
             1710.09,390.21 1710.19,390.80 1713.80,391.23
             1716.59,391.56 1718.36,393.36 1720.70,394.17
             1722.20,394.69 1723.82,394.80 1725.46,395.11
             1724.88,391.79 1724.42,389.17 1723.89,386.24
             1723.89,386.24 1723.89,386.24 1723.89,386.24 Z
           M 1694.11,383.97
           C 1689.90,383.65 1685.39,383.31 1680.82,382.96
             1680.72,384.43 1680.62,385.61 1680.52,387.05
             1685.15,387.40 1689.66,387.75 1694.47,388.11
             1695.36,389.33 1696.27,390.59 1696.75,391.25
             1700.86,391.56 1704.27,391.83 1708.17,392.12
             1706.36,388.19 1704.78,384.75 1703.22,381.37
             1701.34,381.23 1699.74,381.11 1698.00,380.97
             1696.88,381.84 1695.64,382.79 1694.11,383.97
             1694.11,383.97 1694.11,383.97 1694.11,383.97 Z
           M 241.22,632.95
           C 238.75,632.76 237.16,632.64 235.49,632.52
             234.35,633.88 233.12,635.33 231.80,636.91
             230.16,634.13 227.42,635.23 225.32,634.63
             221.99,638.36 217.16,637.44 213.02,638.24
             210.93,638.64 207.90,639.00 207.23,636.65
             207.91,632.77 208.49,629.52 209.09,626.13
             214.07,624.12 219.11,622.09 224.32,620.00
             223.76,617.61 223.29,615.59 222.61,612.68
             225.93,613.47 228.57,614.09 232.07,614.93
             232.74,614.08 233.90,612.64 235.43,610.72
             232.26,608.00 229.61,605.73 226.89,603.40
             227.08,600.93 227.27,598.41 227.48,595.67
             225.51,594.91 223.54,594.15 221.53,593.39
             220.87,594.97 220.16,596.69 219.36,598.63
             216.86,598.44 214.86,598.28 212.97,598.13
             212.53,593.64 212.12,589.33 211.68,584.75
             213.82,584.91 215.39,585.03 216.57,585.11
             218.59,583.31 220.32,581.77 222.08,580.20
             225.47,581.21 228.14,582.00 231.23,582.92
             232.41,579.68 231.78,576.16 232.62,572.53
             229.83,572.32 227.46,572.13 225.93,572.03
             222.67,569.44 220.07,567.39 217.12,565.04
             216.02,564.96 214.42,564.84 212.63,564.71
             211.55,565.53 210.32,566.47 209.46,567.12
             207.39,566.29 205.53,565.55 203.67,564.80
             203.74,563.80 203.82,562.79 203.90,561.67
             198.98,559.20 193.83,557.89 187.53,558.57
             186.86,559.99 186.06,561.71 185.12,563.68
             185.07,563.69 184.56,564.07 184.13,563.97
             174.91,562.13 168.47,567.52 161.70,571.05
             156.51,571.37 151.56,571.55 146.67,572.09
             145.54,572.23 144.60,573.65 143.89,574.21
             142.34,573.87 140.60,572.95 139.81,573.41
             137.98,574.51 136.48,574.48 134.69,573.64
             133.34,573.00 131.94,572.44 130.38,571.77
             129.82,573.01 129.43,573.88 129.03,574.76
             126.09,575.27 123.14,575.76 120.36,576.24
             117.55,571.89 123.09,570.72 124.45,566.65
             121.46,567.41 119.89,567.81 117.92,568.32
             116.96,566.81 115.85,565.09 114.75,563.37
             114.45,563.61 114.16,563.84 113.86,564.07
             113.97,562.55 113.89,560.99 114.25,559.51
             114.81,557.19 114.94,557.21 114.54,556.03
             122.14,553.32 127.94,548.28 133.28,542.64
             130.11,539.31 126.94,535.96 123.77,532.61
             121.08,530.39 119.23,532.43 117.11,534.23
             114.78,532.57 113.84,530.93 115.56,528.16
             117.16,525.59 118.05,522.63 119.48,519.32
             117.32,519.05 116.04,518.89 114.07,518.65
             114.46,516.88 114.84,515.16 115.47,512.31
             114.71,511.65 112.94,510.12 110.93,508.39
             111.95,507.09 112.68,506.15 113.20,505.49
             112.75,502.88 112.35,500.52 111.81,497.39
             111.36,496.87 110.35,495.69 109.10,494.25
             110.03,492.73 111.03,491.11 112.08,489.40
             115.25,490.84 118.38,492.28 122.30,494.08
             122.52,491.28 122.66,489.37 122.86,486.75
             124.67,487.53 125.73,488.00 127.15,488.63
             131.41,485.81 136.06,482.76 141.03,479.49
             144.40,479.24 148.34,479.28 152.07,478.51
             154.07,478.09 155.55,476.19 154.98,473.72
             151.50,470.99 148.00,468.23 143.99,465.07
             141.95,467.31 140.17,469.25 138.29,471.31
             135.70,471.11 133.03,470.91 130.28,470.71
             128.81,471.75 127.37,472.79 125.33,474.24
             123.25,469.36 115.39,470.64 114.65,463.45
             116.14,464.29 117.04,464.80 118.26,465.49
             121.55,464.19 122.48,461.17 124.02,457.73
             122.38,456.32 120.68,454.84 118.50,452.95
             117.48,453.71 116.08,454.76 114.70,455.79
             111.53,452.25 105.14,452.84 103.01,447.52
             103.10,446.32 103.22,444.81 103.38,442.71
             102.30,442.61 101.12,442.17 100.34,442.53
             94.66,445.11 89.05,447.83 83.46,450.49
             80.35,447.59 80.35,447.59 80.18,442.39
             78.47,442.53 76.79,442.68 74.29,442.91
             73.76,442.05 72.81,440.53 71.75,438.83
             70.98,438.77 69.92,438.69 68.87,438.61
             68.05,436.40 67.24,434.23 66.07,431.09
             64.70,433.27 63.27,434.48 63.28,435.71
             63.32,440.72 60.57,444.04 56.60,446.77
             50.09,439.49 49.17,435.64 52.49,428.04
             50.68,424.76 48.69,421.17 46.39,417.00
             48.15,417.23 50.17,416.92 50.94,417.69
             53.24,420.01 56.11,418.56 58.77,419.52
             59.64,420.41 60.70,421.51 61.74,422.59
             65.16,421.43 65.16,421.43 69.04,421.67
             72.49,420.05 75.65,418.57 79.38,416.81
             78.51,414.79 77.50,412.44 76.51,410.12
             73.96,409.92 71.85,409.76 69.47,409.57
             68.12,407.77 66.73,405.91 65.29,403.97
             62.01,407.16 59.30,403.80 57.29,404.21
             54.40,404.80 51.68,404.95 48.84,404.77
             45.89,404.59 42.95,404.33 40.25,404.12
             38.97,405.16 37.94,405.99 36.84,406.88
             30.98,406.43 25.04,405.97 18.72,405.49
             18.16,404.69 17.42,403.63 16.49,402.29
             12.46,402.07 8.23,402.08 5.13,398.32
             8.13,396.81 10.92,395.41 13.70,394.00
             16.32,392.68 19.58,392.31 19.70,388.19
             19.74,386.97 23.25,385.89 25.18,384.75
             25.98,385.25 26.97,386.35 27.54,386.17
             31.38,385.05 35.68,386.16 39.32,383.59
             40.93,382.45 43.70,382.76 46.80,382.28
             45.63,381.21 44.81,380.59 44.15,379.83
             43.58,379.19 43.19,378.39 42.44,377.24
             45.23,377.83 47.46,377.97 49.35,378.80
             51.15,379.59 52.59,381.11 54.85,382.80
             55.55,381.65 56.22,380.53 56.90,379.43
             57.12,379.65 57.34,379.89 57.56,380.13
             57.76,377.59 57.95,375.05 58.10,373.05
             60.95,371.19 63.49,369.52 66.26,367.69
             68.61,367.88 71.31,368.08 73.26,368.23
             76.52,366.61 79.20,365.27 81.81,363.97
             84.87,365.96 84.86,370.01 88.80,370.57
             91.19,369.11 95.01,368.72 96.32,365.31
             94.96,363.75 93.64,362.24 91.91,360.27
             88.18,358.79 85.49,365.63 80.17,361.81
             79.92,361.55 79.03,360.57 78.04,359.49
             76.02,359.33 73.88,359.17 71.18,358.97
             70.44,359.76 69.37,360.88 67.84,362.51
             66.11,360.20 64.72,358.35 63.03,356.11
             61.29,357.27 59.83,358.24 58.22,359.32
             52.76,360.31 50.46,355.41 46.54,353.76
             46.66,352.20 46.74,351.19 46.83,349.95
             49.54,348.43 52.38,346.83 55.38,345.15
             57.53,345.99 59.64,346.80 61.56,347.56
             64.49,346.03 67.16,344.64 69.96,343.17
             75.38,347.81 80.58,344.15 87.38,343.61
             89.40,344.59 92.54,345.75 96.88,344.40
             101.64,342.93 107.08,343.39 112.45,342.97
             112.52,342.51 112.64,341.81 112.87,340.41
             107.77,340.83 102.92,338.15 98.02,341.24
             97.13,340.49 96.37,339.85 95.37,339.03
             90.59,343.04 86.41,337.12 81.51,338.08
             76.22,339.11 72.22,335.73 67.59,333.37
             72.76,328.56 80.34,330.88 85.88,327.59
             86.99,328.28 88.03,328.95 90.02,330.21
             90.70,329.00 91.47,327.63 91.76,327.11
             102.80,327.25 102.80,327.25 106.96,329.44
             108.89,328.68 110.97,327.85 113.69,326.79
             118.08,327.73 123.39,326.67 128.49,329.19
             130.56,330.21 134.12,331.00 136.95,329.05
             137.66,328.57 138.96,328.75 139.98,328.79
             145.76,328.99 151.45,329.96 157.34,328.76
             160.05,328.20 163.54,328.21 166.50,330.35
             167.96,331.40 171.16,331.87 172.63,331.08
             176.09,329.20 179.39,330.61 182.73,330.47
             186.88,330.28 191.02,329.88 195.16,329.93
             199.22,329.99 203.28,330.49 207.59,330.83
             208.40,330.03 209.33,329.12 210.57,327.91
             216.14,328.87 221.73,330.03 227.37,330.73
             233.02,331.43 238.72,331.65 245.23,332.15
             245.83,331.37 246.78,330.15 247.57,329.12
             250.06,329.51 252.41,329.23 253.55,330.20
             256.20,332.45 259.27,331.04 261.99,331.88
             266.24,328.95 269.82,331.96 273.23,333.52
             275.85,334.72 278.37,334.89 280.88,334.57
             287.17,333.77 287.03,334.13 293.54,335.48
             298.97,336.61 304.84,337.09 310.28,336.39
             312.95,336.04 315.47,336.20 318.03,336.23
             319.12,336.24 320.17,337.69 321.30,337.77
             322.43,337.87 323.64,336.67 324.80,336.71
             338.96,337.17 353.12,337.84 367.28,338.28
             371.14,338.40 375.17,340.13 378.92,337.71
             379.27,337.48 380.09,337.59 380.50,337.83
             385.04,340.51 389.64,339.68 394.63,339.08
             399.63,338.48 405.04,340.56 409.99,339.83
             418.34,338.60 426.44,339.97 434.63,340.41
             442.76,340.84 450.88,341.49 458.99,342.24
             467.47,343.04 475.95,340.83 484.41,342.61
             488.17,340.76 492.33,342.56 495.98,341.75
             499.98,340.85 503.75,341.05 507.65,341.31
             511.71,341.57 515.77,342.11 519.83,342.16
             522.62,342.20 525.41,341.59 528.20,341.33
             531.01,341.08 534.07,342.96 536.61,340.48
             536.73,340.36 537.12,340.48 537.39,340.48
             543.70,340.45 550.01,340.48 556.32,340.36
             560.73,340.29 565.15,339.84 569.56,339.91
             573.89,339.99 578.49,341.52 582.49,340.60
             588.45,339.24 594.16,341.16 599.84,340.51
             612.76,339.01 625.46,341.59 638.27,341.95
             641.32,342.03 644.64,342.04 647.40,341.03
             652.60,339.12 657.94,341.59 662.92,340.19
             668.06,338.75 673.12,341.21 677.97,340.27
             686.57,338.59 694.95,340.56 703.42,340.83
             707.07,340.93 710.49,338.76 714.23,340.08
             717.64,337.59 721.47,339.12 725.03,339.45
             730.32,339.96 735.31,339.05 740.37,338.05
             741.87,337.75 743.48,337.77 745.03,337.84
             747.47,337.93 749.91,338.33 752.34,338.32
             754.37,338.29 756.29,338.96 758.56,337.99
             760.09,337.32 762.66,338.88 764.80,339.29
             769.26,340.16 773.63,339.25 778.05,338.84
             782.16,338.44 786.47,340.59 790.47,338.19
             796.66,339.53 803.33,337.48 809.28,340.95
             810.73,341.79 813.33,342.09 814.79,341.44
             819.26,339.47 823.68,341.17 828.09,341.01
             831.70,340.89 835.30,340.56 838.90,340.32
             842.24,340.11 845.79,342.08 848.92,339.56
             849.06,339.45 849.45,339.56 849.71,339.61
             856.57,340.83 863.41,339.65 870.26,339.69
             880.90,339.76 891.66,341.21 902.15,340.23
             911.63,339.33 920.78,340.55 930.03,341.23
             939.88,341.95 949.72,339.91 959.52,341.80
             965.24,339.71 971.20,342.25 976.79,341.40
             986.23,339.96 995.46,342.60 1004.66,341.95
             1012.14,341.41 1019.67,343.03 1026.80,341.97
             1034.16,340.88 1041.11,342.64 1048.22,342.33
             1051.83,342.19 1055.31,343.97 1059.17,341.93
             1061.89,340.48 1065.86,343.61 1069.12,340.99
             1069.84,340.41 1071.77,340.93 1073.08,341.23
             1080.49,342.84 1087.98,341.52 1095.22,340.97
             1101.39,340.51 1107.34,341.19 1113.37,341.16
             1115.41,341.16 1117.60,342.31 1119.49,340.43
             1119.77,340.15 1121.20,341.00 1122.13,341.13
             1126.07,341.71 1130.44,343.44 1133.83,342.43
             1137.73,341.24 1141.39,342.92 1144.69,341.85
             1148.15,340.73 1151.38,341.23 1154.75,341.21
             1158.63,341.19 1162.51,340.87 1166.37,340.59
             1170.28,340.29 1174.25,342.59 1178.16,340.35
             1178.73,340.03 1179.94,340.68 1180.85,340.92
             1182.08,341.25 1183.76,342.28 1184.43,341.87
             1188.57,339.33 1192.85,341.20 1196.94,341.49
             1202.23,341.89 1207.21,341.04 1212.25,340.01
             1213.76,339.71 1215.40,339.67 1216.93,339.85
             1228.37,341.28 1239.89,338.84 1251.30,340.89
             1255.35,339.24 1259.57,340.39 1263.72,340.17
             1266.10,340.05 1268.41,338.65 1270.54,337.91
             1272.60,338.55 1274.48,339.43 1276.45,339.67
             1280.75,340.20 1285.33,341.31 1289.36,340.47
             1293.34,339.64 1297.71,341.00 1301.33,338.59
             1301.67,338.36 1302.56,338.43 1302.89,338.71
             1307.64,342.49 1312.84,338.65 1317.85,339.65
             1323.13,340.72 1328.63,340.79 1334.06,340.96
             1336.84,341.05 1340.35,341.31 1342.26,339.92
             1345.03,337.95 1347.03,341.93 1349.75,339.69
             1351.65,338.12 1354.46,340.37 1356.85,340.95
             1359.50,341.57 1362.69,340.01 1365.65,339.49
             1366.54,339.33 1367.82,339.11 1368.38,339.55
             1370.75,341.40 1373.06,341.63 1375.62,340.05
             1376.01,339.81 1376.57,339.71 1377.06,339.71
             1383.91,339.69 1390.76,339.79 1397.61,339.68
             1401.21,339.63 1404.81,339.16 1408.42,339.01
             1412.03,338.88 1415.51,339.81 1419.33,338.52
             1422.10,337.57 1425.72,338.81 1428.98,339.01
             1433.80,339.29 1439.11,340.79 1443.32,339.40
             1447.78,337.95 1452.46,341.60 1456.33,338.08
             1456.58,337.85 1457.91,338.31 1458.38,338.76
             1460.37,340.73 1463.46,340.71 1465.13,340.03
             1468.87,338.47 1472.46,339.89 1476.03,339.45
             1486.73,338.15 1497.36,340.44 1507.94,340.12
             1513.46,339.95 1519.14,340.80 1524.39,339.88
             1531.43,338.64 1538.14,340.23 1545.00,340.08
             1548.58,339.99 1552.06,338.77 1555.82,339.35
             1559.39,339.89 1562.99,340.28 1566.68,338.85
             1568.46,338.17 1570.93,339.15 1573.11,339.19
             1576.19,339.23 1579.23,340.27 1582.41,338.56
             1583.70,337.85 1586.44,338.09 1588.29,339.96
             1588.90,340.57 1591.74,338.81 1593.06,339.32
             1596.46,340.60 1599.50,340.83 1603.19,340.16
             1606.78,339.49 1610.72,340.52 1614.51,340.81
             1618.03,341.08 1621.55,341.35 1625.07,341.61
             1628.85,341.89 1632.64,342.37 1636.44,342.41
             1638.95,342.43 1641.47,341.81 1643.99,341.52
             1646.54,341.21 1649.27,343.11 1651.72,340.93
             1652.10,340.60 1653.52,340.64 1653.82,340.99
             1655.88,343.45 1658.80,342.51 1661.32,342.77
             1665.73,343.23 1670.08,343.67 1674.61,342.45
             1678.80,341.32 1683.53,344.55 1687.85,341.84
             1688.21,341.63 1689.14,341.65 1689.39,341.92
             1692.39,345.08 1696.47,343.77 1700.02,344.13
             1710.28,345.17 1720.60,345.55 1730.85,346.64
             1739.62,347.57 1748.31,345.71 1757.11,346.91
             1765.96,348.11 1774.94,348.44 1783.89,349.03
             1789.91,349.43 1795.56,350.93 1801.12,353.15
             1802.79,353.80 1804.83,353.92 1806.65,353.80
             1813.42,353.37 1819.54,356.45 1826.15,357.04
             1828.41,357.23 1830.50,359.36 1832.52,360.53
             1832.38,362.52 1832.26,364.03 1832.11,365.93
             1827.35,370.00 1821.14,371.00 1814.78,371.64
             1811.20,373.99 1807.54,376.39 1803.57,378.99
             1803.40,380.33 1803.20,382.04 1802.95,384.01
             1800.49,383.83 1798.15,383.65 1796.04,383.49
             1794.72,384.56 1793.71,385.40 1792.84,386.09
             1786.43,386.37 1780.21,386.65 1773.98,386.93
             1773.18,387.63 1772.40,388.29 1771.20,389.31
             1772.57,391.09 1773.93,392.85 1775.17,394.47
             1776.83,394.59 1778.19,394.69 1779.98,394.83
             1781.01,395.84 1782.27,397.07 1783.87,398.63
             1785.60,397.48 1787.26,396.39 1788.50,395.56
             1791.42,398.87 1794.15,401.96 1796.88,405.07
             1797.28,404.80 1797.67,404.55 1798.07,404.28
             1797.99,405.48 1797.89,406.67 1797.77,408.17
             1792.70,408.55 1787.55,408.93 1781.75,409.36
             1781.34,409.69 1780.31,410.52 1778.67,411.85
             1773.65,411.47 1768.05,410.91 1762.44,410.72
             1761.12,410.67 1759.77,411.88 1758.51,412.49
             1758.43,413.53 1758.35,414.53 1758.24,415.88
             1762.24,416.19 1766.21,416.48 1769.90,416.76
             1771.28,418.20 1772.37,419.32 1773.25,420.24
             1779.27,419.65 1785.12,419.07 1790.46,418.53
             1793.04,421.39 1795.32,423.88 1798.12,426.96
             1798.16,428.49 1798.59,431.12 1796.44,432.17
             1792.00,432.72 1788.40,432.93 1784.92,433.67
             1782.41,434.21 1780.07,434.99 1777.34,434.64
             1774.07,434.21 1771.93,436.24 1770.00,438.96
             1767.10,437.17 1764.84,433.60 1760.32,435.16
             1760.01,436.44 1759.68,437.83 1759.17,440.00
             1757.12,438.44 1755.59,437.27 1753.72,435.84
             1752.60,435.76 1750.97,435.63 1748.80,435.47
             1747.99,436.32 1746.91,437.43 1745.50,438.88
             1743.92,437.49 1742.60,436.35 1741.15,435.07
             1737.42,434.79 1733.43,434.49 1729.25,434.17
             1729.15,435.56 1729.06,436.75 1728.95,438.15
             1731.23,439.91 1733.65,441.75 1736.14,443.67
             1742.08,442.32 1747.92,439.71 1754.49,443.37
             1757.15,444.85 1761.07,443.81 1764.28,445.63
             1765.32,446.21 1767.81,444.15 1770.09,444.72
             1773.33,445.53 1776.74,444.68 1779.97,446.87
             1782.33,448.47 1786.36,446.33 1788.95,449.00
             1789.23,449.31 1790.07,449.51 1790.40,449.33
             1795.58,446.67 1800.95,449.72 1806.08,448.92
             1810.54,448.21 1814.90,447.84 1819.34,448.52
             1821.86,448.92 1824.70,447.97 1826.79,450.49
             1827.37,451.17 1829.54,451.21 1830.71,450.83
             1838.70,448.21 1846.60,451.41 1854.53,451.16
             1857.41,454.23 1862.08,452.17 1865.37,454.69
             1866.77,455.76 1870.05,456.17 1871.53,455.36
             1874.98,453.45 1878.30,454.99 1881.34,454.69
             1883.94,456.73 1886.34,458.61 1888.60,460.40
             1888.96,463.12 1888.15,465.15 1885.35,465.76
             1876.94,467.61 1876.36,467.80 1871.61,471.60
             1870.79,472.27 1869.97,472.92 1869.19,473.56
             1867.69,473.65 1866.22,473.75 1863.28,473.93
             1865.98,476.19 1867.58,477.52 1869.21,478.85
             1869.03,481.15 1868.86,483.36 1868.69,485.67
             1866.58,486.73 1864.54,487.75 1862.34,488.85
             1862.17,491.09 1862.00,493.32 1861.82,495.64
             1862.93,496.28 1864.22,497.03 1865.75,497.92
             1866.43,497.23 1867.33,496.32 1868.22,495.41
             1871.35,495.65 1874.26,495.88 1877.51,496.12
             1877.63,497.39 1877.75,498.81 1877.94,500.79
             1879.28,500.43 1880.40,500.13 1881.75,499.77
             1883.31,500.97 1885.91,502.09 1886.92,503.97
             1889.47,508.64 1893.20,510.99 1898.28,513.16
             1903.49,515.39 1907.52,520.07 1912.45,523.97
             1909.98,526.57 1908.38,528.56 1904.58,528.91
             1901.80,529.16 1899.25,531.57 1896.35,533.16
             1896.11,536.32 1895.87,539.56 1895.64,542.61
             1890.87,546.16 1885.66,545.80 1880.46,545.25
             1878.28,546.44 1876.16,547.63 1874.19,548.71
             1878.63,550.61 1883.20,552.59 1887.81,554.57
             1887.64,556.92 1887.51,558.61 1887.40,560.03
             1888.71,561.52 1889.72,562.69 1890.93,564.08
             1889.16,566.27 1888.80,569.35 1885.16,570.27
             1881.07,571.29 1877.71,573.60 1874.58,577.16
             1876.24,578.48 1877.90,579.79 1879.52,581.07
             1879.32,583.72 1879.14,586.25 1878.92,589.08
             1877.62,589.99 1876.10,591.03 1874.21,592.33
             1872.65,592.21 1870.51,592.05 1868.42,591.89
             1864.41,595.24 1859.68,596.08 1854.61,595.51
             1849.09,594.88 1843.81,595.49 1838.56,597.08
             1836.91,597.59 1834.92,597.15 1832.82,597.15
             1846.21,604.04 1845.49,604.07 1854.06,604.85
             1854.92,607.40 1855.74,609.88 1856.58,612.36
             1860.80,612.28 1858.09,617.79 1861.81,617.65
             1859.01,619.91 1856.44,621.99 1853.04,624.72
             1851.29,624.91 1847.73,626.29 1845.32,625.25
             1842.27,623.95 1839.35,623.72 1836.36,623.29
             1833.31,626.01 1830.01,627.73 1825.73,627.13
             1821.90,626.59 1819.17,629.41 1815.69,630.01
             1812.70,630.52 1810.01,634.28 1806.65,630.57
             1806.57,630.48 1805.91,630.87 1805.51,631.03
             1799.68,633.37 1793.64,632.09 1787.64,631.99
             1782.98,631.91 1778.31,632.53 1773.06,632.87
             1770.65,635.00 1767.12,635.12 1763.33,634.71
             1759.01,634.24 1754.68,633.88 1750.35,633.76
             1748.64,633.72 1746.91,634.81 1745.23,634.72
             1743.84,634.65 1742.52,633.21 1741.12,633.11
             1739.72,633.00 1738.11,634.39 1736.85,634.09
             1732.70,633.15 1728.73,634.95 1724.25,633.60
             1719.82,632.27 1714.51,631.33 1709.41,633.49
             1707.48,634.32 1704.63,633.13 1702.19,633.13
             1695.07,633.15 1688.07,631.01 1680.76,632.77
             1677.93,633.47 1673.90,633.73 1670.89,630.97
             1669.97,630.15 1667.67,630.09 1666.21,630.45
             1657.12,632.67 1648.15,630.21 1639.15,629.75
             1633.86,629.48 1628.77,631.53 1623.47,630.24
             1620.73,629.57 1617.59,630.59 1615.24,628.12
             1614.72,627.57 1613.04,627.56 1612.10,627.85
             1604.95,630.12 1597.83,627.85 1590.72,627.69
             1578.72,627.41 1566.72,627.12 1554.74,626.47
             1542.82,625.83 1530.85,623.55 1519.04,624.09
             1500.90,624.93 1483.13,622.03 1465.19,621.19
             1454.54,620.71 1443.87,622.25 1433.27,620.39
             1425.88,622.75 1418.49,620.17 1411.09,620.27
             1407.49,620.32 1403.89,620.73 1400.28,620.95
             1396.95,621.13 1393.45,619.36 1390.24,621.67
             1389.76,622.01 1388.67,621.60 1387.86,621.55
             1386.76,621.47 1385.68,621.44 1384.60,621.29
             1365.93,618.69 1347.04,620.63 1328.33,618.56
             1322.05,620.23 1315.70,618.61 1309.41,618.84
             1305.65,618.96 1302.01,620.73 1298.52,617.89
             1298.04,617.51 1296.55,617.44 1296.23,617.79
             1294.46,619.77 1292.24,618.77 1290.20,618.73
             1279.83,618.48 1269.36,617.23 1259.12,618.16
             1245.31,619.40 1231.86,616.85 1218.25,616.20
             1214.23,616.01 1210.52,616.99 1206.63,617.07
             1202.75,617.13 1198.71,615.03 1194.98,617.61
             1194.65,617.85 1193.93,617.56 1193.38,617.55
             1181.38,617.15 1169.40,616.79 1157.40,616.32
             1153.34,616.16 1148.77,614.49 1145.37,615.75
             1141.57,617.15 1137.35,614.80 1134.16,617.65
             1130.09,616.37 1126.06,618.84 1121.57,617.01
             1118.42,615.73 1113.94,614.95 1109.99,617.23
             1108.69,617.97 1106.30,617.03 1104.40,616.95
             1090.25,616.36 1076.06,615.15 1061.95,615.53
             1055.32,615.72 1048.62,614.64 1042.23,615.52
             1033.86,616.69 1025.79,615.03 1017.58,615.00
             1013.71,614.97 1009.84,615.48 1005.96,615.59
             1002.34,615.68 998.85,615.37 995.09,616.04
             989.01,617.12 982.53,616.49 976.23,616.40
             966.40,616.25 956.52,615.31 946.77,616.00
             942.03,616.33 937.39,616.27 932.69,616.25
             929.90,616.24 927.12,616.93 924.31,617.05
             921.74,617.16 919.22,616.44 916.67,617.92
             915.55,618.57 913.50,617.68 911.88,617.72
             909.33,617.77 906.69,616.40 904.20,618.48
             903.49,619.07 901.57,618.59 900.27,618.31
             897.53,617.71 894.87,616.53 892.11,616.29
             889.64,616.09 887.09,616.89 884.56,617.13
             880.70,617.51 876.98,615.88 872.83,617.56
             869.50,618.92 865.06,616.03 861.28,618.40
             860.75,618.73 859.47,618.61 858.92,618.23
             853.31,614.31 847.50,616.53 841.73,617.47
             840.50,617.67 839.20,618.37 838.06,618.16
             829.31,616.57 820.56,618.56 811.82,617.80
             803.17,617.03 794.50,616.45 785.84,615.80
             781.92,616.85 778.47,620.37 773.76,616.68
             771.46,614.88 767.67,618.01 765.72,617.05
             762.84,615.65 760.81,615.75 757.80,616.13
             753.26,616.73 748.74,617.81 743.91,617.35
             729.26,615.93 714.49,617.49 699.82,615.51
             697.39,615.19 694.80,616.12 692.27,616.36
             689.99,616.57 687.44,615.08 685.46,617.35
             685.26,617.57 684.38,617.44 683.90,617.25
             681.42,616.32 679.28,615.47 676.23,616.48
             673.66,617.33 670.35,616.07 667.38,616.08
             663.23,616.09 659.09,616.61 654.95,616.56
             650.89,616.51 646.35,614.79 642.89,615.99
             638.13,617.64 633.62,615.93 628.98,616.85
             624.43,617.75 619.45,616.76 614.66,616.65
             613.63,616.63 612.56,616.63 611.58,616.87
             609.16,617.48 606.84,618.60 604.39,618.83
             601.74,619.07 599.00,618.43 596.29,618.33
             591.86,618.19 587.37,616.72 583.02,618.80
             582.40,619.09 581.24,618.99 580.64,618.61
             578.15,617.07 575.47,618.16 573.06,617.84
             563.44,616.55 553.89,618.97 544.35,617.44
             539.83,616.71 535.69,617.80 531.76,619.37
             529.53,618.75 527.35,618.09 525.14,617.53
             523.17,617.04 521.24,617.39 519.19,615.96
             515.93,613.71 512.13,616.12 508.82,616.85
             505.20,617.67 502.01,620.48 498.36,617.03
             493.68,617.25 488.91,614.99 484.26,617.43
             483.47,617.84 482.13,617.35 481.05,617.24
             475.05,616.65 469.27,617.53 463.40,618.68
             460.10,619.32 456.44,618.43 452.94,618.19
             450.59,618.01 448.44,618.03 446.14,619.11
             442.65,620.75 436.12,620.68 430.87,619.97
             429.82,619.84 428.66,620.80 427.54,620.81
             424.96,620.87 422.54,620.60 419.88,621.59
             418.26,622.20 415.65,619.99 413.46,619.92
             410.42,619.81 407.47,618.55 404.14,620.41
             401.75,621.76 398.06,619.29 394.88,620.96
             393.68,621.59 391.79,621.19 390.22,621.09
             385.64,620.80 381.06,620.41 375.71,620.01
             375.00,620.87 374.02,622.07 373.18,623.09
             366.48,619.84 359.60,619.80 350.77,622.83
             350.10,622.28 349.34,621.65 348.53,620.99
             344.16,621.96 339.79,622.93 335.42,623.89
             335.47,624.15 335.52,624.39 335.57,624.64
             332.07,624.37 327.97,622.93 325.22,624.15
             321.98,625.57 318.49,623.73 315.47,626.01
             314.25,626.95 311.32,625.87 309.24,625.72
             308.13,626.61 307.11,627.44 306.84,627.65
             299.71,628.73 293.36,629.37 287.21,630.79
             284.97,631.29 283.49,631.79 281.55,630.29
             280.68,629.63 278.84,629.25 277.87,629.65
             273.22,631.53 268.73,633.73 263.59,636.08
             256.52,634.89 248.86,636.05 240.88,637.47
             240.99,636.01 241.08,634.81 241.22,632.95" />
</svg>
